<?xml version="1.0" encoding="utf-8"?>
<?xml-stylesheet type="text/xsl" href="rss1.xsl"?>
<rss version="2.0" xmlns:atom="http://www.w3.org/2005/Atom" xmlns:content="http://purl.org/rss/1.0/modules/content/" xmlns:dc="http://purl.org/dc/elements/1.1/" xmlns:media="http://search.yahoo.com/mrss/">
<channel>
 <title>Getty</title>
 <link>http://www.gettyimg.com/</link>
 <atom:link href="http://www.gettyimg.com/" rel="self" type="application/rss+xml" />

 
                <item>
                <title><![CDATA[【Cinema Center】MOVIE - Bee.Movie.2007.1080p.HMAX.WEB-DL.DD5.1.x264-Samuel]]></title>
                <link><![CDATA[https://sharemania.us/threads/bee-movie-2007-1080p-hmax-web-dl-dd5-1-x264-samuel.220452/]]></link>
                <description><![CDATA[<article>
<blockquote class="messageText SelectQuoteContainer ugc baseHtml">
<div style="text-align: center"><b><span style="font-size: 26px">Bee Movie</span></b><br>
<a href="https://i.imgur.com/BsMI4VO.jpg" target="_blank" class="externalLink" rel="nofollow"><img src="https://i.imgur.com/wHQ7NpG.jpg" class="bbCodeImage LbImage" alt="[​IMG]" data-url="https://i.imgur.com/wHQ7NpG.jpg"></a><br>
<br>
1 HR 30 MIN • PG • 2007 • HD • 5.1 • COMEDY<br>
<br>
<div class="bbCodeBlock bbCodeQuote">
<aside>
<blockquote class="quoteContainer"><div class="quote"><b><span style="font-size: 15px"><span style="font-family: 'Arial'">Description</span></span></b><br>
An unsatisfied bumblebee leaves the hive behind for a jaunt in the big bad human world in this animated comedy.</div><div class="quoteExpand">Click to expand...</div></blockquote>
</aside>
</div>
<div class="bbCodeBlock bbCodeQuote">
<aside>
<blockquote class="quoteContainer"><div class="quote"><span style="font-family: 'Arial'"><span style="font-size: 15px"><b>Trailers &amp; Clips</b></span></span><br>
<div data-s9e-mediaembed="googledrive" style="display:inline-block;width:100%;max-width:640px"><div style="overflow:hidden;position:relative;padding-bottom:75%"><iframe allowfullscreen="" scrolling="no" src="//drive.google.com/file/d/186bzuH7gBli9lNb2ABkPGO1Oq9HwJGfI/preview" style="border:0;height:100%;left:0;position:absolute;width:100%"></iframe></div></div></div><div class="quoteExpand quoteCut">Click to expand...</div></blockquote>
</aside>
</div>
<div class="bbCodeBlock bbCodeQuote">
<aside>
<blockquote class="quoteContainer"><div class="quote"><span style="font-family: 'Arial'"><span style="font-size: 15px"><b>Accessibility</b></span></span><br>
<b>Audio languages:</b> English (United States), English (United States) (Audio Description), Spanish (Latin American)<br>
<b>Subtitles:</b> English US (SDH), Spanish (Latin American) (CC)</div><div class="quoteExpand">Click to expand...</div></blockquote>
</aside>
</div>
<div class="bbCodeBlock bbCodeQuote">
<aside>
<blockquote class="quoteContainer"><div class="quote"><span style="font-family: 'Arial'"><span style="font-size: 15px"><b>More Information</b></span></span><br>
<b><i><span style="text-decoration: underline">Genres</span></i></b><br>
Kid, Comedy, Animation<br>
<br>
<b><i><span style="text-decoration: underline">Runtime</span></i></b><br>
1 hr 26 min<br>
<br>
<b><i><span style="text-decoration: underline">About This Movie</span></i></b><br>
An unsatisfied bumblebee leaves the hive behind for a jaunt in the big bad human world in this animated comedy. Jerry Seinfeld provides the voice of Barry B. Benson, a bee who finds himself discontented with a life of honey-making. Sneaking out with a swarm, Barry discovers an amazing new world--until he learns about man's consumption of honey and decides to fight back.<br>
<br>
<b><i><span style="text-decoration: underline">Cast &amp; Crew</span></i></b><br>
Barry B. Benson • Jerry Seinfeld<br>
Vanessa Bloome • Renée Zellweger<br>
<br>
<b><i><span style="text-decoration: underline">Producers</span></i></b><br>
Producer • Jerry Seinfeld<br>
Producer • Christina Steinberg<br>
<br>
<b><i><span style="text-decoration: underline">Directors</span></i></b><br>
Directed By • Simon J. Smith<br>
Directed By • Steve Hickner<br>
<br>
<b><i><span style="text-decoration: underline">Writers</span></i></b><br>
Written by • Jerry Seinfeld<br>
Written by • Spike Feresten<br>
Written by • Barry Marder<br>
Written by • Andy Robin<br>
<br>
<b><i><span style="text-decoration: underline">Music</span></i></b><br>
Composer • Rupert Gregson Williams<br>
Sugar Sugar • Artist: The Archies<br>
Composer: Jeff Barry, Andy Kim<br>
Here Comes the Sun • Artist: Sheryl Crow<br>
Composer: George Harrison<br>
Thinkin' Bee • Artist: Jerry Seinfeld, Matthew Broderick<br>
Composer: Marc Shaiman, Jerry Seinfeld<br>
<br>
<b><i><span style="text-decoration: underline">Rating Information</span></i></b><br>
PG</div><div class="quoteExpand quoteCut">Click to expand...</div></blockquote>
</aside>
</div>
<div class="bbCodeBlock bbCodeQuote">
<aside>
<blockquote class="quoteContainer"><div class="quote"><b><span style="font-size: 15px"><span style="font-family: 'Arial'">Source</span></span></b><br>
<img src="https://i.imgur.com/kP0bkE8.png" class="bbCodeImage LbImage" alt="[​IMG]" data-url="https://i.imgur.com/kP0bkE8.png" style=""></div><div class="quoteExpand">Click to expand...</div></blockquote>
</aside>
</div>
<div class="bbCodeBlock bbCodeQuote">
<aside>
<blockquote class="quoteContainer"><div class="quote"><b><b><span style="font-size: 15px">Release Name</span></b></b><br>
Bee.Movie.2007.1080p.HMAX.WEB-DL.DD5.1.x264-Samuel</div><div class="quoteExpand">Click to expand...</div></blockquote>
</aside>
</div>
<div class="ToggleTriggerAnchor bbCodeSpoilerContainer">
<button type="button" class="button bbCodeSpoilerButton ToggleTrigger Tooltip JsOnly" data-target="> .SpoilerTarget"><span>Spoiler: <span class="SpoilerTitle">Media Information</span></span></button>
<div class="SpoilerTarget bbCodeSpoilerText">General<br>
Complete name : Bee.Movie.2007.1080p.HMAX.WEB-DL.DD5.1.x264-Samuel.mkv<br>
Format : Matroska<br>
Format version : Version 4<br>
File size : 5.92 GiB<br>
Duration : 1 h 30 min<br>
Overall bit rate mode : Variable<br>
Overall bit rate : 9 350 kb/s<br>
Frame rate : 23.976 FPS<br>
Encoded date : 2023-05-06 10:05:54 UTC<br>
Writing application : mkvmerge v72.0.0 ('Minuano (Six-eight)') 64-bit<br>
Writing library : libebml v1.4.4 + libmatroska v1.7.1<br>
<br>
Video<br>
ID : 1<br>
Format : AVC<br>
Format/Info : Advanced Video Codec<br>
Format profile : High@L4<br>
Format settings : CABAC / 4 Ref Frames<br>
Format settings, CABAC : Yes<br>
Format settings, Reference frames : 4 frames<br>
Codec ID : V_MPEG4/ISO/AVC<br>
Duration : 1 h 30 min<br>
Bit rate mode : Variable<br>
Bit rate : 8 250 kb/s<br>
Maximum bit rate : 12.4 Mb/s<br>
Width : 1 920 pixels<br>
Height : 1 080 pixels<br>
Display aspect ratio : 16:9<br>
Frame rate mode : Constant<br>
Frame rate : 23.976 (24000/1001) FPS<br>
Color space : YUV<br>
Chroma subsampling : 4:2:0<br>
Bit depth : 8 bits<br>
Scan type : Progressive<br>
Bits/(Pixel*Frame) : 0.166<br>
Stream size : 5.19 GiB (88%)<br>
Writing library : x264 core 157 r2965 861cec4<br>
Encoding settings : cabac=1 / ref=4 / deblock=1:0:0 / analyse=0x3:0x113 / me=hex / subme=7 / psy=1 / psy_rd=1.00:0.00 / mixed_ref=1 / me_range=16 / chroma_me=1 / trellis=1 / 8x8dct=1 / cqm=0 / deadzone=21,11 / fast_pskip=1 / chroma_qp_offset=-2 / threads=34 / lookahead_threads=5 / sliced_threads=0 / nr=0 / decimate=1 / interlaced=0 / bluray_compat=0 / constrained_intra=0 / bframes=3 / b_pyramid=2 / b_adapt=1 / b_bias=0 / direct=1 / weightb=1 / open_gop=0 / weightp=2 / keyint=96 / keyint_min=96 / scenecut=40 / intra_refresh=0 / rc_lookahead=40 / rc=2pass / mbtree=1 / bitrate=8250 / ratetol=1.0 / qcomp=0.60 / qpmin=0 / qpmax=69 / qpstep=4 / cplxblur=20.0 / qblur=0.5 / vbv_maxrate=12375 / vbv_bufsize=6187 / nal_hrd=vbr / filler=0 / ip_ratio=1.40 / aq=1:1.00<br>
Default : Yes<br>
Forced : No<br>
Color range : Limited<br>
Color primaries : BT.709<br>
Transfer characteristics : BT.709<br>
Matrix coefficients : BT.709<br>
<br>
Audio #1<br>
ID : 2<br>
Format : AC-3<br>
Format/Info : Audio Coding 3<br>
Commercial name : Dolby Digital<br>
Codec ID : A_AC3<br>
Duration : 1 h 30 min<br>
Bit rate mode : Constant<br>
Bit rate : 384 kb/s<br>
Channel(s) : 6 channels<br>
Channel layout : L R C LFE Ls Rs<br>
Sampling rate : 48.0 kHz<br>
Frame rate : 31.250 FPS (1536 SPF)<br>
Compression mode : Lossy<br>
Stream size : 249 MiB (4%)<br>
Language : English<br>
Service kind : Complete Main<br>
Default : Yes<br>
Forced : No<br>
<br>
Audio #2<br>
ID : 3<br>
Format : AC-3<br>
Format/Info : Audio Coding 3<br>
Commercial name : Dolby Digital<br>
Codec ID : A_AC3<br>
Duration : 1 h 30 min<br>
Bit rate mode : Constant<br>
Bit rate : 384 kb/s<br>
Channel(s) : 2 channels<br>
Channel layout : L R<br>
Sampling rate : 48.0 kHz<br>
Frame rate : 31.250 FPS (1536 SPF)<br>
Compression mode : Lossy<br>
Stream size : 249 MiB (4%)<br>
Title : Audio Description<br>
Language : English<br>
Service kind : Complete Main<br>
Default : No<br>
Forced : No<br>
<br>
Audio #3<br>
ID : 4<br>
Format : AC-3<br>
Format/Info : Audio Coding 3<br>
Commercial name : Dolby Digital<br>
Codec ID : A_AC3<br>
Duration : 1 h 30 min<br>
Bit rate mode : Constant<br>
Bit rate : 384 kb/s<br>
Channel(s) : 2 channels<br>
Channel layout : L R<br>
Sampling rate : 48.0 kHz<br>
Frame rate : 31.250 FPS (1536 SPF)<br>
Compression mode : Lossy<br>
Stream size : 249 MiB (4%)<br>
Title : Latin American<br>
Language : Spanish<br>
Service kind : Complete Main<br>
Default : No<br>
Forced : No<br>
<br>
Text #1<br>
ID : 5<br>
Format  : UTF-8<br>
Codec ID : S_TEXT/UTF8<br>
Codec ID/Info : UTF-8 Plain Text<br>
Duration : 1 h 30 min<br>
Bit rate : 91 b/s<br>
Frame rate : 0.377 FPS<br>
Count of elements : 2047<br>
Stream size : 60.5 KiB (0%)<br>
Title : SDH<br>
Language : English<br>
Default : No<br>
Forced : No<br>
<br>
Text #2<br>
ID : 6<br>
Format : UTF-8<br>
Codec ID : S_TEXT/UTF8<br>
Codec ID/Info : UTF-8 Plain Text<br>
Duration : 1 h 29 min<br>
Bit rate : 85 b/s<br>
Frame rate : 0.309 FPS<br>
Count of elements : 1660<br>
Stream size : 56.1 KiB (0%)<br>
Title : Latin American<br>
Language : Spanish<br>
Default : No<br>
Forced : No</div>
</div><br>
<b>Screenshots</b><br>
<img src="https://i.imgur.com/uPC5TzH.png" class="bbCodeImage LbImage" alt="[​IMG]" data-url="https://i.imgur.com/uPC5TzH.png" style=""><br>
<br>
<b>Download</b><br>
<div class="bbCodeBlock bbCodeVfcHH HiddenContent">
<div class="attribution type">Hidden Content:</div>
<blockquote>You must reply before you can see the hidden data contained here.</blockquote>
</div></div>
<div class="messageTextEndMarker">&nbsp;</div>
</blockquote>
</article>]]></description>
                <author><![CDATA[Samuel]]></author>
                </item>

                
                <item>
                <title><![CDATA[【Cinema Center】MOVIE - Happily Ever After: Snow White's Greatest Adventure (1989) (Original version)]]></title>
                <link><![CDATA[https://sharemania.us/threads/happily-ever-after-snow-whites-greatest-adventure-1989-original-version.220451/]]></link>
                <description><![CDATA[<article>
<blockquote class="messageText SelectQuoteContainer ugc baseHtml">
<div style="text-align: center"><b><span style="font-size: 26px">Happily Ever After: Snow White's Greatest Adventure (1989) <br>
(Original version)</span></b><br>
<b><span style="font-size: 26px"><br>
<img src="https://media-cache.cinematerial.com/p/500x/grlalfud/happily-ever-after-dvd-movie-cover.jpg?v=1456748801" class="bbCodeImage LbImage" alt="[​IMG]" data-url="https://media-cache.cinematerial.com/p/500x/grlalfud/happily-ever-after-dvd-movie-cover.jpg?v=1456748801" style=""> <br>
</span><br>
<span style="font-size: 18px">The Wicked Queen is dead but her brother, Lord Maliss, seeks for revenge. Using the Magic Mirror to locate Snow White and the Prince, he transforms into a dragon and attacks. Maliss takes the Prince to the Realm of Doom. Snow White, with the aid of the Seven Dwarfelles, cousins of the Sevens Dwarves, must embark on a quest to save her true love.</span><br>
<br>
<span style="font-size: 26px"><img src="https://i.imgur.com/iL9vM8U.jpg" class="bbCodeImage LbImage" alt="[​IMG]" data-url="https://i.imgur.com/iL9vM8U.jpg" style=""> <br>
</span></b>​</div><span style="font-size: 18px">Copy of the Collector's Edition of the movie "Happily Ever After: Snow White's Greatest Adventure".<br>
English subtiitles are softcoded in the video <img src="styles/default/xenforo/smilies/big_smile-48.png" class="mceSmilie" alt=":)" title="Smile    :)"><br>
</span><br>
<div style="text-align: center">
<div class="bbCodeBlock bbCodeVfcHH HiddenContent">
<div class="attribution type">Hidden Content:</div>
<blockquote>You must reply before you can see the hidden data contained here.</blockquote>
</div></div><br>
<span style="font-size: 18px"><br>
</span><br>
<div style="text-align: center"><b><span style="font-size: 26px"><br>
</span></b>​</div>
<div class="messageTextEndMarker">&nbsp;</div>
</blockquote>
</article>]]></description>
                <author><![CDATA[Bookworm__003]]></author>
                </item>

                
                <item>
                <title><![CDATA[【UPSCALED】Christina Aguilera, Lil' Kim - Can't Hold Us Down (2003) - 1080p Upscaled]]></title>
                <link><![CDATA[https://sharemania.us/threads/christina-aguilera-lil-kim-cant-hold-us-down-2003-1080p-upscaled.220453/]]></link>
                <description><![CDATA[<article>
<blockquote class="messageText SelectQuoteContainer ugc baseHtml">
<img src="https://i.imgur.com/ko4tmhu.jpg" class="bbCodeImage LbImage" alt="[​IMG]" data-url="https://i.imgur.com/ko4tmhu.jpg" style=""> <br>
<br>
<div class="bbCodeBlock bbCodeVfcHH HiddenContent">
<div class="attribution type">Hidden Content:</div>
<blockquote>You must reply before you can see the hidden data contained here.</blockquote>
</div>
<div class="ToggleTriggerAnchor bbCodeSpoilerContainer">
<button type="button" class="button bbCodeSpoilerButton ToggleTrigger Tooltip JsOnly" data-target="> .SpoilerTarget"><span>Spoiler: <span class="SpoilerTitle">MediaInfo</span></span></button>
<div class="SpoilerTarget bbCodeSpoilerText"><span style="font-family: 'Courier New'">General<br>
Format : MPEG-4<br>
Format profile : Base Media / Version 2<br>
Codec ID : mp42 (isom/mp42)<br>
File size : 758 MiB<br>
Duration : 4 min 32 s<br>
Overall bit rate mode : Variable<br>
Overall bit rate : 23.3 Mb/s<br>
Video<br>
ID : 2<br>
Format : AVC<br>
Format/Info : Advanced Video Codec<br>
Format profile : High@L4.2<br>
Format settings : CABAC / 3 Ref Frames<br>
Format settings, CABAC : Yes<br>
Format settings, Reference fra : 3 frames<br>
Codec ID : avc1<br>
Codec ID/Info : Advanced Video Coding<br>
Duration : 4 min 32 s<br>
Bit rate mode : Variable<br>
Bit rate : 23.0 Mb/s<br>
Maximum bit rate : 26.0 Mb/s<br>
Width : 1 440 pixels<br>
Height : 1 080 pixels<br>
Display aspect ratio : 4:3<br>
Frame rate mode : Constant<br>
Frame rate : 23.976 (24000/1001) FPS<br>
Standard : NTSC<br>
Color space : YUV<br>
Chroma subsampling : 4:2:0<br>
Bit depth : 8 bits<br>
Scan type : Progressive<br>
Bits/(Pixel*Frame) : 0.618<br>
Stream size : 748 MiB (99%)<br>
Language : English<br>
Color range : Limited<br>
Color primaries : BT.709<br>
Transfer characteristics : BT.709<br>
Matrix coefficients : BT.709<br>
Codec configuration box : avcC<br>
Audio<br>
ID : 1<br>
Format : AAC LC<br>
Format/Info : Advanced Audio Codec Low Complexity<br>
Codec ID : mp4a-40-2<br>
Duration : 4 min 32 s<br>
Bit rate mode : Variable<br>
Bit rate : 317 kb/s<br>
Maximum bit rate : 471 kb/s<br>
Channel(s) : 2 channels<br>
Channel layout : L R<br>
Sampling rate : 48.0 kHz<br>
Frame rate : 46.875 FPS (1024 SPF)<br>
Compression mode : Lossy<br>
Stream size : 10.3 MiB (1%)<br>
Language : English</span></div>
</div><br>
SOURCE: <a href="https://sharemania.us/threads/various-artists-music-videos-small-part-master-prores-master-masterrip.190174/" class="internalLink">https://sharemania.us/threads/vario...l-part-master-prores-master-masterrip.190174/</a>
<div class="messageTextEndMarker">&nbsp;</div>
</blockquote>
</article>]]></description>
                <author><![CDATA[lulis]]></author>
                </item>

                </channel></rss>